<mxfile host="app.diagrams.net" modified="2024-03-09T20:02:04.237Z" agent="Mozilla/5.0 (Windows NT 10.0; Win64; x64) AppleWebKit/537.36 (KHTML, like Gecko) Chrome/122.0.0.0 Safari/537.36" etag="HnspIuEVN3r0Kn6rjN8H" version="24.0.4" type="github">
  <diagram name="PÃ¡gina-1" id="hNAxjIGaJdhHwA7gnnjn">
    <mxGraphModel dx="880" dy="472" grid="1" gridSize="10" guides="1" tooltips="1" connect="1" arrows="1" fold="1" page="1" pageScale="1" pageWidth="827" pageHeight="1169" math="0" shadow="0">
      <root>
        <mxCell id="0" />
        <mxCell id="1" parent="0" />
        <mxCell id="9Bf6Wea90JQik3r4SX6L-1" value="Creates" style="rounded=1;whiteSpace=wrap;html=1;fillColor=#ffe6cc;strokeColor=#d79b00;" parent="1" vertex="1">
          <mxGeometry x="80" y="50" width="120" height="60" as="geometry" />
        </mxCell>
        <mxCell id="9Bf6Wea90JQik3r4SX6L-2" value="You Decide" style="rounded=1;whiteSpace=wrap;html=1;fillColor=#fff2cc;strokeColor=#d6b656;" parent="1" vertex="1">
          <mxGeometry x="80" y="550" width="120" height="60" as="geometry" />
        </mxCell>
        <mxCell id="9Bf6Wea90JQik3r4SX6L-3" value="Sends Data To" style="rounded=1;whiteSpace=wrap;html=1;fillColor=#d5e8d4;strokeColor=#82b366;" parent="1" vertex="1">
          <mxGeometry x="85" y="450" width="120" height="60" as="geometry" />
        </mxCell>
        <mxCell id="9Bf6Wea90JQik3r4SX6L-4" value="Links To" style="rounded=1;whiteSpace=wrap;html=1;fillColor=#dae8fc;strokeColor=#6c8ebf;" parent="1" vertex="1">
          <mxGeometry x="85" y="340" width="120" height="60" as="geometry" />
        </mxCell>
        <mxCell id="9Bf6Wea90JQik3r4SX6L-5" value="Calls" style="rounded=1;whiteSpace=wrap;html=1;fillColor=#f8cecc;strokeColor=#b85450;" parent="1" vertex="1">
          <mxGeometry x="80" y="240" width="120" height="60" as="geometry" />
        </mxCell>
        <mxCell id="9Bf6Wea90JQik3r4SX6L-6" value="Manages" style="rounded=1;whiteSpace=wrap;html=1;fillColor=#e1d5e7;strokeColor=#9673a6;" parent="1" vertex="1">
          <mxGeometry x="80" y="140" width="120" height="60" as="geometry" />
        </mxCell>
        <mxCell id="9Bf6Wea90JQik3r4SX6L-7" value="" style="rounded=0;whiteSpace=wrap;html=1;" parent="1" vertex="1">
          <mxGeometry x="300" y="20" width="500" height="600" as="geometry" />
        </mxCell>
        <mxCell id="9Bf6Wea90JQik3r4SX6L-8" value="REPORTS PAGE" style="rounded=1;whiteSpace=wrap;html=1;" parent="1" vertex="1">
          <mxGeometry x="320" y="40" width="470" height="60" as="geometry" />
        </mxCell>
        <mxCell id="9Bf6Wea90JQik3r4SX6L-18" value="ID" style="rounded=1;whiteSpace=wrap;html=1;" parent="1" vertex="1">
          <mxGeometry x="340" y="160" width="50" height="60" as="geometry" />
        </mxCell>
        <mxCell id="9Bf6Wea90JQik3r4SX6L-19" value="LOG 1" style="rounded=1;whiteSpace=wrap;html=1;" parent="1" vertex="1">
          <mxGeometry x="410" y="160" width="380" height="60" as="geometry" />
        </mxCell>
        <mxCell id="9Bf6Wea90JQik3r4SX6L-22" value="ID" style="rounded=1;whiteSpace=wrap;html=1;" parent="1" vertex="1">
          <mxGeometry x="340" y="230" width="50" height="60" as="geometry" />
        </mxCell>
        <mxCell id="9Bf6Wea90JQik3r4SX6L-26" value="ID" style="rounded=1;whiteSpace=wrap;html=1;" parent="1" vertex="1">
          <mxGeometry x="340" y="300" width="50" height="60" as="geometry" />
        </mxCell>
        <mxCell id="9Bf6Wea90JQik3r4SX6L-30" value="ID" style="rounded=1;whiteSpace=wrap;html=1;" parent="1" vertex="1">
          <mxGeometry x="340" y="380" width="50" height="60" as="geometry" />
        </mxCell>
        <mxCell id="9Bf6Wea90JQik3r4SX6L-34" value="RETURN" style="rounded=1;whiteSpace=wrap;html=1;" parent="1" vertex="1">
          <mxGeometry x="680" y="540" width="120" height="60" as="geometry" />
        </mxCell>
        <mxCell id="9Bf6Wea90JQik3r4SX6L-35" value="LOG 2" style="rounded=1;whiteSpace=wrap;html=1;" parent="1" vertex="1">
          <mxGeometry x="410" y="230" width="380" height="60" as="geometry" />
        </mxCell>
        <mxCell id="9Bf6Wea90JQik3r4SX6L-36" value="LOG 3" style="rounded=1;whiteSpace=wrap;html=1;" parent="1" vertex="1">
          <mxGeometry x="410" y="300" width="380" height="60" as="geometry" />
        </mxCell>
        <mxCell id="9Bf6Wea90JQik3r4SX6L-37" value="LOG 4" style="rounded=1;whiteSpace=wrap;html=1;" parent="1" vertex="1">
          <mxGeometry x="410" y="380" width="380" height="60" as="geometry" />
        </mxCell>
      </root>
    </mxGraphModel>
  </diagram>
</mxfile>
